<mxfile host="65bd71144e">
    <diagram id="tZtlhKYscvhiy819AIVJ" name="Page-1">
        <mxGraphModel dx="1402" dy="1117" grid="0" gridSize="10" guides="1" tooltips="1" connect="1" arrows="1" fold="1" page="0" pageScale="1" pageWidth="850" pageHeight="1100" background="#CCCCFF" math="0" shadow="0" adaptiveColors="none">
            <root>
                <mxCell id="0"/>
                <mxCell id="1" parent="0"/>
                <mxCell id="2" value="" style="swimlane;startSize=0;swimlaneLine=0;strokeColor=#0000CC;strokeWidth=2;rounded=1;" parent="1" vertex="1">
                    <mxGeometry x="18" y="229" width="215" height="136" as="geometry">
                        <mxRectangle x="18" y="229" width="50" height="44" as="alternateBounds"/>
                    </mxGeometry>
                </mxCell>
                <mxCell id="6" style="edgeStyle=orthogonalEdgeStyle;html=1;exitX=1;exitY=0.5;exitDx=0;exitDy=0;entryX=0;entryY=0.5;entryDx=0;entryDy=0;rounded=1;" parent="2" source="4" target="5" edge="1">
                    <mxGeometry relative="1" as="geometry"/>
                </mxCell>
                <mxCell id="4" value="&lt;b&gt;user input text&lt;/b&gt;" style="rounded=1;whiteSpace=wrap;html=1;strokeWidth=1;strokeColor=#B3B3B3;" parent="2" vertex="1">
                    <mxGeometry x="9" y="80" width="86" height="24" as="geometry"/>
                </mxCell>
                <mxCell id="5" value="&lt;b&gt;HTML&amp;nbsp;&lt;/b&gt;&lt;div&gt;&lt;b&gt;FORM&lt;/b&gt;&lt;/div&gt;" style="rounded=1;whiteSpace=wrap;html=1;strokeWidth=1;strokeColor=#B3B3B3;" parent="2" vertex="1">
                    <mxGeometry x="121" y="66" width="75" height="52" as="geometry"/>
                </mxCell>
                <mxCell id="8" value="&lt;b&gt;&lt;font style=&quot;font-size: 14px;&quot;&gt;HTML Front End (request page)&lt;/font&gt;&lt;/b&gt;" style="text;html=1;align=center;verticalAlign=middle;whiteSpace=wrap;rounded=1;" parent="2" vertex="1">
                    <mxGeometry x="63" y="12" width="126.5" height="36" as="geometry"/>
                </mxCell>
                <mxCell id="14" style="edgeStyle=orthogonalEdgeStyle;html=1;exitX=1;exitY=0.5;exitDx=0;exitDy=0;entryX=0;entryY=0.5;entryDx=0;entryDy=0;dashed=1;rounded=1;" parent="1" source="5" target="11" edge="1">
                    <mxGeometry relative="1" as="geometry"/>
                </mxCell>
                <mxCell id="63" value="&amp;nbsp;&lt;b&gt;&lt;i&gt;GET&lt;/i&gt;&lt;/b&gt;&amp;nbsp;" style="edgeLabel;html=1;align=center;verticalAlign=middle;resizable=0;points=[];rounded=1;" parent="14" vertex="1" connectable="0">
                    <mxGeometry x="0.1317" y="2" relative="1" as="geometry">
                        <mxPoint x="-14" y="-1" as="offset"/>
                    </mxGeometry>
                </mxCell>
                <mxCell id="9" value="" style="swimlane;startSize=0;swimlaneLine=0;strokeColor=#994C00;strokeWidth=2;rounded=1;" parent="1" vertex="1">
                    <mxGeometry x="275" y="230" width="693" height="292" as="geometry">
                        <mxRectangle x="275" y="230" width="50" height="44" as="alternateBounds"/>
                    </mxGeometry>
                </mxCell>
                <mxCell id="12" value="" style="rounded=1;whiteSpace=wrap;html=1;dashed=1;dashPattern=1 1;gradientColor=none;fillColor=#E6E6E6;" parent="9" vertex="1">
                    <mxGeometry x="93" y="26" width="261" height="140" as="geometry"/>
                </mxCell>
                <mxCell id="20" style="edgeStyle=orthogonalEdgeStyle;html=1;exitX=1;exitY=0.5;exitDx=0;exitDy=0;entryX=0;entryY=0.5;entryDx=0;entryDy=0;elbow=vertical;strokeColor=#FF0000;strokeWidth=1.5;rounded=1;" parent="9" source="11" target="15" edge="1">
                    <mxGeometry relative="1" as="geometry"/>
                </mxCell>
                <mxCell id="21" style="edgeStyle=orthogonalEdgeStyle;html=1;exitX=1;exitY=0.5;exitDx=0;exitDy=0;entryX=0;entryY=0.5;entryDx=0;entryDy=0;elbow=vertical;strokeColor=#009900;strokeWidth=1.5;rounded=1;" parent="9" source="11" target="16" edge="1">
                    <mxGeometry relative="1" as="geometry"/>
                </mxCell>
                <mxCell id="13" value="&lt;span style=&quot;font-size: 14px;&quot;&gt;&lt;b&gt;Flask Back-end&lt;/b&gt;&lt;/span&gt;" style="text;html=1;align=center;verticalAlign=middle;whiteSpace=wrap;rounded=1;" parent="9" vertex="1">
                    <mxGeometry x="283" y="-8" width="126.5" height="36" as="geometry"/>
                </mxCell>
                <mxCell id="15" value="chat_history.json" style="rounded=1;whiteSpace=wrap;html=1;strokeColor=#FF0000;strokeWidth=1.5;" parent="9" vertex="1">
                    <mxGeometry x="137" y="124" width="111" height="26" as="geometry"/>
                </mxCell>
                <mxCell id="16" value="Prompt Selector" style="rounded=1;whiteSpace=wrap;html=1;strokeColor=#009900;strokeWidth=1.5;" parent="9" vertex="1">
                    <mxGeometry x="129.32" y="54" width="115" height="26" as="geometry"/>
                </mxCell>
                <mxCell id="11" value="&lt;b&gt;input text&amp;nbsp;&lt;/b&gt;" style="rounded=1;whiteSpace=wrap;html=1;strokeWidth=1;strokeColor=#B3B3B3;" parent="9" vertex="1">
                    <mxGeometry x="15" y="80" width="56" height="35" as="geometry"/>
                </mxCell>
                <mxCell id="30" value="&lt;span style=&quot;font-size: 10px; text-wrap: wrap;&quot;&gt;&lt;b&gt;&lt;i&gt;Promt &lt;br&gt;steering&lt;/i&gt;&lt;/b&gt;&lt;/span&gt;" style="edgeStyle=orthogonalEdgeStyle;html=1;exitX=1;exitY=0.5;exitDx=0;exitDy=0;exitPerimeter=0;strokeWidth=1.5;strokeColor=#994C00;rounded=1;" parent="9" source="26" target="29" edge="1">
                    <mxGeometry relative="1" as="geometry"/>
                </mxCell>
                <mxCell id="26" value="" style="verticalLabelPosition=bottom;verticalAlign=top;html=1;shape=mxgraph.flowchart.summing_function;strokeColor=#994C00;strokeWidth=1.5;rounded=1;" parent="9" vertex="1">
                    <mxGeometry x="323" y="97" width="23" height="22" as="geometry"/>
                </mxCell>
                <mxCell id="27" style="edgeStyle=orthogonalEdgeStyle;html=1;exitX=1;exitY=0.5;exitDx=0;exitDy=0;entryX=0;entryY=0.5;entryDx=0;entryDy=0;entryPerimeter=0;strokeColor=#FF0000;strokeWidth=1.5;rounded=1;" parent="9" source="15" target="26" edge="1">
                    <mxGeometry relative="1" as="geometry"/>
                </mxCell>
                <mxCell id="28" style="edgeStyle=orthogonalEdgeStyle;html=1;exitX=1;exitY=0.5;exitDx=0;exitDy=0;entryX=0;entryY=0.5;entryDx=0;entryDy=0;entryPerimeter=0;strokeColor=#009900;strokeWidth=1.5;rounded=1;" parent="9" source="16" target="26" edge="1">
                    <mxGeometry relative="1" as="geometry"/>
                </mxCell>
                <mxCell id="53" value="&lt;div style=&quot;scrollbar-color: light-dark(#e2e2e2, #4b4b4b)&lt;br/&gt;&#x9;&#x9;&#x9;&#x9;&#x9;light-dark(#fbfbfb, var(--dark-panel-color)); font-size: 12px; text-wrap: wrap;&quot;&gt;&lt;span style=&quot;scrollbar-color: light-dark(#e2e2e2, #4b4b4b)&lt;br/&gt;&#x9;&#x9;&#x9;&#x9;&#x9;light-dark(#fbfbfb, var(--dark-panel-color)); font-size: 10px;&quot;&gt;&lt;i style=&quot;scrollbar-color: light-dark(#e2e2e2, #4b4b4b)&lt;br/&gt;&#x9;&#x9;&#x9;&#x9;&#x9;light-dark(#fbfbfb, var(--dark-panel-color));&quot;&gt;&lt;b&gt;LLM&lt;/b&gt;&lt;/i&gt;&lt;/span&gt;&lt;/div&gt;&lt;span style=&quot;scrollbar-color: light-dark(#e2e2e2, #4b4b4b)&lt;br/&gt;&#x9;&#x9;&#x9;&#x9;&#x9;light-dark(#fbfbfb, var(--dark-panel-color)); text-wrap: wrap; font-size: 10px;&quot;&gt;&lt;i style=&quot;scrollbar-color: light-dark(#e2e2e2, #4b4b4b)&lt;br/&gt;&#x9;&#x9;&#x9;&#x9;&#x9;light-dark(#fbfbfb, var(--dark-panel-color));&quot;&gt;&lt;b&gt;Response&lt;/b&gt;&lt;/i&gt;&lt;/span&gt;" style="edgeStyle=none;html=1;exitX=1;exitY=0.5;exitDx=0;exitDy=0;entryX=0;entryY=0.5;entryDx=0;entryDy=0;strokeColor=#994C00;strokeWidth=1.5;rounded=1;" parent="9" source="29" target="32" edge="1">
                    <mxGeometry relative="1" as="geometry"/>
                </mxCell>
                <mxCell id="29" value="LLM" style="rounded=1;whiteSpace=wrap;html=1;fillColor=#99FFCC;strokeWidth=1.5;strokeColor=#666666;" parent="9" vertex="1">
                    <mxGeometry x="439" y="41.25" width="69" height="130.5" as="geometry"/>
                </mxCell>
                <mxCell id="32" value="" style="rounded=1;whiteSpace=wrap;html=1;fillColor=#dae8fc;strokeWidth=1.5;strokeColor=#666666;" parent="9" vertex="1">
                    <mxGeometry x="587" y="62" width="96" height="89" as="geometry"/>
                </mxCell>
                <mxCell id="33" value="&lt;font style=&quot;font-size: 11px;&quot;&gt;&lt;b&gt;JSON&amp;nbsp;&lt;/b&gt;&lt;/font&gt;&lt;div&gt;&lt;font style=&quot;font-size: 11px;&quot;&gt;&lt;b&gt;Export&lt;/b&gt;&lt;/font&gt;&lt;/div&gt;" style="rounded=1;whiteSpace=wrap;html=1;strokeColor=default;strokeWidth=1;fillColor=#E6E6E6;" parent="9" vertex="1">
                    <mxGeometry x="601" y="77" width="74" height="28" as="geometry"/>
                </mxCell>
                <mxCell id="50" value="&lt;font style=&quot;font-size: 11px;&quot;&gt;&lt;b&gt;Visualization&lt;/b&gt;&lt;/font&gt;" style="rounded=1;whiteSpace=wrap;html=1;strokeColor=#330000;strokeWidth=1;fillColor=#E6E6E6;" parent="9" vertex="1">
                    <mxGeometry x="601" y="115" width="74" height="28" as="geometry"/>
                </mxCell>
                <mxCell id="55" value="&amp;nbsp;" style="endArrow=classic;html=1;edgeStyle=orthogonalEdgeStyle;strokeWidth=1.5;strokeColor=#994C00;rounded=1;" parent="9" edge="1">
                    <mxGeometry width="50" height="50" relative="1" as="geometry">
                        <mxPoint x="475" y="171" as="sourcePoint"/>
                        <mxPoint x="191" y="150" as="targetPoint"/>
                        <Array as="points">
                            <mxPoint x="474.5" y="209"/>
                            <mxPoint x="191.5" y="209"/>
                        </Array>
                    </mxGeometry>
                </mxCell>
                <mxCell id="58" value="&lt;b&gt;&lt;i&gt;&amp;nbsp; Feedback&amp;nbsp;&amp;nbsp;&lt;/i&gt;&lt;/b&gt;" style="edgeLabel;html=1;align=center;verticalAlign=middle;resizable=0;points=[];rounded=1;" parent="55" vertex="1" connectable="0">
                    <mxGeometry x="-0.1059" y="-3" relative="1" as="geometry">
                        <mxPoint as="offset"/>
                    </mxGeometry>
                </mxCell>
                <mxCell id="158" value="" style="shadow=1;dashed=0;html=1;strokeColor=none;fillColor=#B3B3B3;labelPosition=center;verticalLabelPosition=bottom;verticalAlign=top;align=center;outlineConnect=0;shape=mxgraph.veeam.magnifying_glass;pointerEvents=1;strokeWidth=0.5;perimeterSpacing=0;gradientColor=none;rotation=90;rounded=1;" parent="9" vertex="1">
                    <mxGeometry x="121" y="38" width="67.22" height="81.43" as="geometry"/>
                </mxCell>
                <mxCell id="163" value="&lt;b style=&quot;&quot;&gt;&lt;font style=&quot;background-color: rgb(179, 179, 179);&quot;&gt;CONTEXT CONTROL&lt;/font&gt;&lt;/b&gt;" style="text;html=1;align=center;verticalAlign=middle;whiteSpace=wrap;rounded=1;" parent="9" vertex="1">
                    <mxGeometry x="176" y="18" width="126.5" height="36" as="geometry"/>
                </mxCell>
                <mxCell id="166" value="&lt;span style=&quot;background-color: rgb(179, 179, 179);&quot;&gt;&lt;b&gt;response&lt;/b&gt;&lt;/span&gt;&lt;div&gt;&lt;span style=&quot;background-color: rgb(179, 179, 179);&quot;&gt;&lt;b&gt;Processing&lt;/b&gt;&lt;/span&gt;&lt;/div&gt;" style="text;html=1;align=center;verticalAlign=middle;whiteSpace=wrap;rounded=1;" parent="9" vertex="1">
                    <mxGeometry x="563" y="26" width="126.5" height="36" as="geometry"/>
                </mxCell>
                <mxCell id="64" value="" style="swimlane;startSize=0;swimlaneLine=0;strokeColor=#0000CC;strokeWidth=2;rounded=1;" parent="1" vertex="1">
                    <mxGeometry x="21" y="396" width="212" height="125" as="geometry">
                        <mxRectangle x="21" y="396" width="50" height="44" as="alternateBounds"/>
                    </mxGeometry>
                </mxCell>
                <mxCell id="67" value="&lt;b&gt;HTML ELEMENT&lt;/b&gt;" style="rounded=1;whiteSpace=wrap;html=1;strokeWidth=1.5;strokeColor=#B3B3B3;" parent="64" vertex="1">
                    <mxGeometry x="35" y="57" width="136" height="51" as="geometry"/>
                </mxCell>
                <mxCell id="68" value="&lt;b&gt;&lt;font style=&quot;font-size: 14px;&quot;&gt;HTML Front End&amp;nbsp;&lt;br&gt;(response page)&lt;/font&gt;&lt;/b&gt;" style="text;html=1;align=center;verticalAlign=middle;whiteSpace=wrap;rounded=1;" parent="64" vertex="1">
                    <mxGeometry x="27" y="9" width="126.5" height="36" as="geometry"/>
                </mxCell>
                <mxCell id="72" value="" style="swimlane;startSize=0;swimlaneLine=0;strokeColor=#009900;fillColor=#66FFFF;rounded=1;strokeWidth=2;" parent="1" vertex="1">
                    <mxGeometry x="290" y="-23" width="507" height="226" as="geometry">
                        <mxRectangle x="-54" y="249" width="50" height="44" as="alternateBounds"/>
                    </mxGeometry>
                </mxCell>
                <mxCell id="76" value="&lt;span style=&quot;font-size: 14px;&quot;&gt;&lt;b&gt;Prompt Selector&lt;/b&gt;&lt;/span&gt;" style="text;html=1;align=center;verticalAlign=middle;whiteSpace=wrap;rounded=1;" parent="72" vertex="1">
                    <mxGeometry x="174.5" width="126.5" height="36" as="geometry"/>
                </mxCell>
                <mxCell id="151" value="&lt;b&gt;&amp;nbsp;prompt&amp;nbsp;&lt;/b&gt;&lt;div&gt;&lt;b&gt;vector&amp;nbsp;&amp;nbsp;&lt;/b&gt;&lt;/div&gt;" style="edgeStyle=orthogonalEdgeStyle;html=1;exitX=1;exitY=0.75;exitDx=0;exitDy=0;entryX=0;entryY=0.75;entryDx=0;entryDy=0;strokeColor=#009900;rounded=1;" parent="72" source="78" target="146" edge="1">
                    <mxGeometry relative="1" as="geometry"/>
                </mxCell>
                <mxCell id="78" value="&lt;b&gt;encoder&lt;/b&gt;" style="rounded=1;whiteSpace=wrap;html=1;strokeColor=#009900;strokeWidth=1.5;fillColor=#CCCCCC;" parent="72" vertex="1">
                    <mxGeometry x="143" y="43" width="68" height="126" as="geometry"/>
                </mxCell>
                <mxCell id="144" style="edgeStyle=orthogonalEdgeStyle;html=1;exitX=1;exitY=0.5;exitDx=0;exitDy=0;entryX=0;entryY=0.25;entryDx=0;entryDy=0;strokeColor=#994C00;rounded=1;" parent="72" source="79" target="78" edge="1">
                    <mxGeometry relative="1" as="geometry"/>
                </mxCell>
                <mxCell id="79" value="&lt;font style=&quot;color: rgb(153, 76, 0);&quot;&gt;&lt;b&gt;raw input text&amp;nbsp;&lt;/b&gt;&lt;/font&gt;" style="rounded=1;whiteSpace=wrap;html=1;strokeWidth=1.5;strokeColor=none;" parent="72" vertex="1">
                    <mxGeometry x="14" y="62.5" width="86" height="24" as="geometry"/>
                </mxCell>
                <mxCell id="145" style="edgeStyle=orthogonalEdgeStyle;html=1;exitX=1;exitY=0.5;exitDx=0;exitDy=0;entryX=0;entryY=0.75;entryDx=0;entryDy=0;strokeColor=#009900;rounded=1;" parent="72" source="142" target="78" edge="1">
                    <mxGeometry relative="1" as="geometry"/>
                </mxCell>
                <mxCell id="142" value="&lt;font style=&quot;color: rgb(0, 153, 0);&quot;&gt;&lt;b&gt;Promt description&lt;/b&gt;&lt;/font&gt;" style="rounded=1;whiteSpace=wrap;html=1;strokeWidth=0;strokeColor=none;" parent="72" vertex="1">
                    <mxGeometry x="5" y="120" width="86" height="34" as="geometry"/>
                </mxCell>
                <mxCell id="143" value="" style="aspect=fixed;pointerEvents=1;shadow=0;dashed=0;html=1;strokeColor=#66FFB3;labelPosition=center;verticalLabelPosition=bottom;verticalAlign=top;align=center;fillColor=#B3B3B3;shape=mxgraph.mscae.enterprise.document;rounded=1;" parent="72" vertex="1">
                    <mxGeometry x="31" y="163" width="41.6" height="52" as="geometry"/>
                </mxCell>
                <mxCell id="154" value="" style="edgeStyle=none;html=1;entryX=0.038;entryY=0.492;entryDx=0;entryDy=0;entryPerimeter=0;rounded=1;" parent="72" source="146" target="155" edge="1">
                    <mxGeometry relative="1" as="geometry">
                        <mxPoint x="417" y="107" as="targetPoint"/>
                    </mxGeometry>
                </mxCell>
                <mxCell id="146" value="&lt;b&gt;cosine similarity&lt;/b&gt;&lt;div&gt;&lt;b&gt;+&lt;/b&gt;&lt;/div&gt;&lt;div&gt;&lt;b&gt;ArgMax&lt;/b&gt;&lt;/div&gt;" style="rounded=1;whiteSpace=wrap;html=1;strokeColor=#0000FF;strokeWidth=1.5;fillColor=#FF9933;" parent="72" vertex="1">
                    <mxGeometry x="301" y="46" width="64" height="122" as="geometry"/>
                </mxCell>
                <mxCell id="147" value="&lt;b&gt;&amp;nbsp;input&amp;nbsp;&lt;/b&gt;&lt;div&gt;&lt;b&gt;vector&amp;nbsp;&lt;/b&gt;&lt;/div&gt;" style="endArrow=classic;html=1;exitX=1;exitY=0.25;exitDx=0;exitDy=0;entryX=0;entryY=0.25;entryDx=0;entryDy=0;edgeStyle=orthogonalEdgeStyle;strokeColor=#994C00;rounded=1;" parent="72" source="78" target="146" edge="1">
                    <mxGeometry width="50" height="50" relative="1" as="geometry">
                        <mxPoint x="327" y="120" as="sourcePoint"/>
                        <mxPoint x="377" y="70" as="targetPoint"/>
                        <mxPoint as="offset"/>
                    </mxGeometry>
                </mxCell>
                <mxCell id="155" value="&lt;b&gt;&lt;i&gt;Selected&amp;nbsp;&lt;/i&gt;&lt;/b&gt;&lt;div&gt;&lt;b&gt;&lt;i&gt;Prompt&lt;/i&gt;&lt;/b&gt;&lt;/div&gt;" style="text;html=1;align=center;verticalAlign=middle;resizable=0;points=[];autosize=1;strokeColor=default;fillColor=none;rounded=1;" parent="72" vertex="1">
                    <mxGeometry x="417" y="86.5" width="71" height="41" as="geometry"/>
                </mxCell>
                <mxCell id="164" style="edgeStyle=orthogonalEdgeStyle;html=1;exitX=0.5;exitY=1;exitDx=0;exitDy=0;entryX=1;entryY=0.5;entryDx=0;entryDy=0;elbow=vertical;dashed=1;rounded=1;" parent="1" source="32" target="67" edge="1">
                    <mxGeometry relative="1" as="geometry">
                        <Array as="points">
                            <mxPoint x="910" y="479"/>
                        </Array>
                    </mxGeometry>
                </mxCell>
                <mxCell id="165" value="&amp;nbsp;&lt;b&gt;POST&lt;/b&gt;&amp;nbsp;" style="edgeLabel;html=1;align=center;verticalAlign=middle;resizable=0;points=[];rounded=1;" parent="164" vertex="1" connectable="0">
                    <mxGeometry x="0.1471" relative="1" as="geometry">
                        <mxPoint x="-295" as="offset"/>
                    </mxGeometry>
                </mxCell>
            </root>
        </mxGraphModel>
    </diagram>
</mxfile>